<svg width="293" height="341" viewBox="0 0 293 341" fill="none" xmlns="http://www.w3.org/2000/svg">
<path d="M227.62 157.59C226.16 156.89 224.67 156.21 223.16 155.57C220.54 107.21 194.12 79.52 149.75 79.24C124.15 79.07 101.23 89.51 86.95 111.18L111.35 127.92C121.5 112.52 137.43 109.24 149.16 109.24H149.56C164.17 109.33 175.2 113.58 182.33 121.86C187.52 127.9 191 136.23 192.72 146.75C179.76 144.55 165.76 143.87 150.78 144.73C108.6 147.16 81.48 171.76 83.3 205.94C84.22 223.29 92.86 238.2 107.62 247.95C120.1 256.19 136.18 260.22 152.88 259.3C174.95 258.1 192.25 249.68 204.33 234.29C213.5 222.6 219.3 207.45 221.86 188.37C232.37 194.71 240.16 203.06 244.47 213.1C251.78 230.16 252.21 258.2 229.33 281.06C209.29 301.09 185.19 309.75 148.78 310.02C108.38 309.72 77.83 296.76 57.97 271.51C39.37 247.87 29.76 213.72 29.4 170.01C29.76 126.3 39.37 92.15 57.97 68.51C77.83 43.26 108.38 30.3 148.78 30C189.46 30.3 220.54 43.32 241.17 68.69C251.28 81.13 258.9 96.78 263.93 115.02L292.52 107.39C286.43 84.94 276.85 65.59 263.8 49.54C237.36 17.01 198.7 0.35 148.88 0H148.68C98.96 0.35 60.72 17.08 35.04 49.73C12.18 78.78 0.39 119.21 0 169.89V170.13C0.39 220.81 12.18 261.24 35.04 290.29C60.72 322.94 98.96 339.68 148.68 340.02H148.88C193.08 339.71 224.24 328.14 249.91 302.49C283.49 268.94 282.48 226.89 271.41 201.07C263.47 182.56 248.33 167.52 227.62 157.59ZM151.3 229.35C132.82 230.39 113.61 222.09 112.66 204.32C111.96 191.14 122.04 176.43 152.44 174.68C155.92 174.48 159.34 174.38 162.69 174.38C173.73 174.38 184.06 175.45 193.45 177.51C189.95 221.25 169.41 228.35 151.3 229.35Z" fill="black"/>
</svg>
